# This file uses centimeters as units for non-parametric coordinates.

mtllib Doumbek(instrument).mtl
g default
v 0.105125 0.000000 -0.039167
v 0.000000 0.000000 -0.082712
v -0.105125 0.000000 -0.039167
v -0.148669 0.000000 0.065957
v -0.105125 0.000000 0.171082
v 0.000000 0.000000 0.214626
v 0.105125 0.000000 0.171082
v 0.148669 0.000000 0.065957
v 0.093044 0.524647 -0.027087
v 0.000000 0.524647 -0.065627
v -0.093044 0.524647 -0.027087
v -0.131584 0.524647 0.065957
v -0.093044 0.524647 0.159002
v 0.000000 0.524647 0.197542
v 0.093044 0.524647 0.159002
v 0.131584 0.524647 0.065957
v 0.000000 0.000000 0.065957
v 0.142602 0.746537 -0.106940
v 0.000000 0.746537 -0.178556
v -0.142602 0.746537 -0.106940
v -0.201669 0.746537 0.065957
v -0.142602 0.746537 0.238854
v -0.000000 0.746537 0.310471
v 0.142602 0.746537 0.238854
v 0.201669 0.746537 0.065957
v 0.142602 0.792018 -0.106940
v -0.000000 0.792018 -0.178556
v -0.142602 0.792018 -0.106940
v -0.201669 0.792018 0.065957
v -0.142602 0.792018 0.238854
v -0.000000 0.792018 0.310471
v 0.142602 0.792018 0.238854
v 0.201669 0.792018 0.065957
v 0.129744 0.590658 -0.073843
v -0.000000 0.590657 -0.131751
v -0.129744 0.590657 -0.073843
v -0.183486 0.590658 0.065957
v -0.129744 0.590658 0.205758
v -0.000000 0.590658 0.263666
v 0.129744 0.590658 0.205758
v 0.183486 0.590658 0.065957
v 0.095442 0.048336 -0.029485
v 0.000000 0.048336 -0.069018
v -0.095442 0.048336 -0.029485
v -0.134975 0.048335 0.065957
v -0.095442 0.048336 0.161400
v 0.000000 0.048336 0.200933
v 0.095442 0.048336 0.161399
v 0.134975 0.048336 0.065957
v 0.130659 0.800079 -0.092589
v -0.000000 0.800079 -0.157826
v -0.000000 0.800079 0.065957
v -0.130659 0.800079 -0.092589
v -0.185114 0.800079 0.065957
v -0.130659 0.800079 0.224504
v -0.000000 0.800079 0.289741
v 0.130659 0.800079 0.224504
v 0.185114 0.800079 0.065957
vt 0.610485 0.045765
vt 0.500000 0.000000
vt 0.389515 0.045765
vt 0.343750 0.156250
vt 0.389515 0.266735
vt 0.500000 0.312500
vt 0.610485 0.266735
vt 0.656250 0.156250
vt 0.375000 0.312500
vt 0.406250 0.312500
vt 0.437500 0.312500
vt 0.468750 0.312500
vt 0.500000 0.312500
vt 0.531250 0.312500
vt 0.562500 0.312500
vt 0.593750 0.312500
vt 0.625000 0.312500
vt 0.375000 0.688440
vt 0.406250 0.688440
vt 0.437500 0.688440
vt 0.468750 0.688440
vt 0.500000 0.688440
vt 0.531250 0.688440
vt 0.562500 0.688440
vt 0.593750 0.688440
vt 0.625000 0.688440
vt 0.610485 0.733265
vt 0.500000 0.687500
vt 0.389515 0.733265
vt 0.343750 0.843750
vt 0.389515 0.954235
vt 0.500000 1.000000
vt 0.610485 0.954235
vt 0.656250 0.843750
vt 0.500000 0.150000
vt 0.500000 0.837500
vt 0.610485 0.954235
vt 0.500000 1.000000
vt 0.389515 0.954235
vt 0.343750 0.843750
vt 0.389515 0.733265
vt 0.500000 0.687500
vt 0.610485 0.733265
vt 0.656250 0.843750
vt 0.610485 0.954235
vt 0.500000 1.000000
vt 0.389515 0.954235
vt 0.343750 0.843750
vt 0.389515 0.733265
vt 0.500000 0.687500
vt 0.610485 0.733265
vt 0.656250 0.843750
vt 0.610485 0.954235
vt 0.500000 1.000000
vt 0.389515 0.954235
vt 0.343750 0.843750
vt 0.389515 0.733265
vt 0.500000 0.687500
vt 0.610485 0.733265
vt 0.656250 0.843750
vt 0.625000 0.347135
vt 0.375000 0.347135
vt 0.406250 0.347135
vt 0.437500 0.347135
vt 0.468750 0.347135
vt 0.500000 0.347135
vt 0.531250 0.347135
vt 0.562500 0.347135
vt 0.593750 0.347135
vt 0.610485 0.954235
vt 0.500000 1.000000
vt 0.389515 0.954235
vt 0.343750 0.843750
vt 0.389515 0.733265
vt 0.500000 0.687500
vt 0.610485 0.733265
vt 0.656250 0.843750
vn 0.382463 0.033931 -0.923348
vn 0.382463 0.033931 -0.923347
vn 0.381208 -0.142210 -0.913486
vn 0.381472 -0.135169 -0.914444
vn -0.382463 0.033931 -0.923347
vn -0.382463 0.033931 -0.923348
vn -0.381472 -0.135169 -0.914444
vn -0.381208 -0.142210 -0.913486
vn -0.923348 0.033931 -0.382463
vn -0.923348 0.033931 -0.382463
vn -0.918042 -0.121302 -0.377471
vn -0.917375 -0.127467 -0.377060
vn -0.923348 0.033932 0.382463
vn -0.923348 0.033931 0.382463
vn -0.917375 -0.127467 0.377061
vn -0.918042 -0.121302 0.377472
vn -0.382463 0.033931 0.923348
vn -0.382463 0.033931 0.923348
vn -0.381208 -0.142210 0.913486
vn -0.381471 -0.135169 0.914445
vn 0.382463 0.033931 0.923348
vn 0.382463 0.033931 0.923348
vn 0.381472 -0.135169 0.914445
vn 0.381208 -0.142210 0.913486
vn 0.923348 0.033931 0.382463
vn 0.923348 0.033931 0.382463
vn 0.918042 -0.121302 0.377472
vn 0.917375 -0.127467 0.377061
vn 0.923348 0.033931 -0.382463
vn 0.923348 0.033931 -0.382463
vn 0.917375 -0.127467 -0.377061
vn 0.918042 -0.121302 -0.377472
vn 0.000000 -1.000000 0.000000
vn 0.000000 -1.000000 -0.000000
vn 0.000000 -1.000000 0.000000
vn 0.000000 -1.000000 0.000000
vn 0.000000 -1.000000 0.000000
vn 0.000000 -1.000000 0.000000
vn 0.000000 -1.000000 0.000000
vn 0.000000 -1.000000 0.000000
vn 0.000000 -1.000000 0.000000
vn 0.082984 0.994478 -0.064242
vn -0.000000 0.994853 -0.101331
vn -0.000000 1.000000 -0.000000
vn -0.082984 0.994478 -0.064242
vn -0.107117 0.994246 -0.000001
vn -0.082984 0.994478 0.064242
vn -0.000000 0.994853 0.101331
vn 0.082984 0.994478 0.064242
vn 0.107116 0.994246 -0.000000
vn 0.392188 -0.369817 -0.842273
vn 0.396920 -0.348271 -0.849213
vn 0.427438 -0.180620 -0.885818
vn 0.426248 -0.187970 -0.884862
vn -0.396920 -0.348271 -0.849213
vn -0.392188 -0.369817 -0.842273
vn -0.426248 -0.187970 -0.884862
vn -0.427438 -0.180620 -0.885818
vn -0.914852 -0.225040 -0.335265
vn -0.909725 -0.245915 -0.334555
vn -0.937682 -0.096717 -0.333763
vn -0.938222 -0.092691 -0.333388
vn -0.909725 -0.245915 0.334555
vn -0.914852 -0.225040 0.335265
vn -0.938222 -0.092691 0.333389
vn -0.937682 -0.096717 0.333763
vn -0.392188 -0.369817 0.842273
vn -0.396920 -0.348271 0.849213
vn -0.427438 -0.180620 0.885818
vn -0.426248 -0.187970 0.884862
vn 0.396920 -0.348271 0.849213
vn 0.392188 -0.369817 0.842273
vn 0.426248 -0.187970 0.884862
vn 0.427438 -0.180620 0.885818
vn 0.914852 -0.225039 0.335265
vn 0.909725 -0.245915 0.334555
vn 0.937682 -0.096717 0.333763
vn 0.938222 -0.092691 0.333388
vn 0.909725 -0.245915 -0.334555
vn 0.914852 -0.225040 -0.335265
vn 0.938222 -0.092691 -0.333389
vn 0.937682 -0.096717 -0.333763
vn 0.448795 -0.000001 -0.893635
vn 0.448795 -0.000001 -0.893635
vn -0.448795 -0.000000 -0.893635
vn -0.448794 -0.000000 -0.893635
vn -0.946300 0.000000 -0.323289
vn -0.946300 0.000000 -0.323289
vn -0.946300 0.000000 0.323289
vn -0.946300 0.000000 0.323289
vn -0.448795 0.000000 0.893635
vn -0.448795 0.000000 0.893635
vn 0.448794 0.000000 0.893635
vn 0.448794 0.000000 0.893635
vn 0.946300 -0.000000 0.323289
vn 0.946300 -0.000000 0.323289
vn 0.946300 -0.000000 -0.323289
vn 0.946300 -0.000000 -0.323289
vn 0.370213 0.253206 -0.893773
vn 0.370213 0.253206 -0.893773
vn -0.370213 0.253206 -0.893773
vn -0.370213 0.253206 -0.893773
vn -0.893772 0.253208 -0.370211
vn -0.893773 0.253208 -0.370211
vn -0.893772 0.253210 0.370211
vn -0.893772 0.253209 0.370211
vn -0.370213 0.253206 0.893773
vn -0.370213 0.253206 0.893773
vn 0.370213 0.253206 0.893772
vn 0.370213 0.253206 0.893772
vn 0.893773 0.253206 0.370213
vn 0.893773 0.253206 0.370213
vn 0.893773 0.253205 -0.370213
vn 0.893773 0.253206 -0.370213
vn 0.293645 0.917017 -0.269912
vn -0.000000 0.930823 -0.365470
vn -0.293646 0.917017 -0.269912
vn -0.434560 0.900643 -0.000000
vn -0.293646 0.917017 0.269912
vn -0.000000 0.930823 0.365470
vn 0.293645 0.917017 0.269912
vn 0.434560 0.900643 -0.000000
s 1
g pCylinder1
usemtl lambert2SG
f 42/62/1 43/63/2 10/19/3 9/18/4
s 2
f 43/63/5 44/64/6 11/20/7 10/19/8
s 3
f 44/64/9 45/65/10 12/21/11 11/20/12
s 4
f 45/65/13 46/66/14 13/22/15 12/21/16
s 5
f 46/66/17 47/67/18 14/23/19 13/22/20
s 6
f 47/67/21 48/68/22 15/24/23 14/23/24
s 7
f 48/68/25 49/69/26 16/25/27 15/24/28
s 8
f 49/69/29 42/61/30 9/26/31 16/25/32
s 9
f 2/2/33 1/1/34 17/35/35
f 3/3/36 2/2/33 17/35/35
f 4/4/37 3/3/36 17/35/35
f 5/5/38 4/4/37 17/35/35
f 6/6/39 5/5/38 17/35/35
f 7/7/40 6/6/39 17/35/35
f 8/8/41 7/7/40 17/35/35
f 1/1/34 8/8/41 17/35/35
s 10
f 50/70/42 51/71/43 52/36/44
f 51/71/43 53/72/45 52/36/44
f 53/72/45 54/73/46 52/36/44
f 54/73/46 55/74/47 52/36/44
f 55/74/47 56/75/48 52/36/44
f 56/75/48 57/76/49 52/36/44
f 57/76/49 58/77/50 52/36/44
f 58/77/50 50/70/42 52/36/44
s 1
f 34/53/51 35/54/52 19/38/53 18/37/54
s 2
f 35/54/55 36/55/56 20/39/57 19/38/58
s 3
f 36/55/59 37/56/60 21/40/61 20/39/62
s 4
f 37/56/63 38/57/64 22/41/65 21/40/66
s 5
f 38/57/67 39/58/68 23/42/69 22/41/70
s 6
f 39/58/71 40/59/72 24/43/73 23/42/74
s 7
f 40/59/75 41/60/76 25/44/77 24/43/78
s 8
f 41/60/79 34/53/80 18/37/81 25/44/82
s 1
f 18/37/54 19/38/53 27/46/83 26/45/84
s 2
f 19/38/58 20/39/57 28/47/85 27/46/86
s 3
f 20/39/62 21/40/61 29/48/87 28/47/88
s 4
f 21/40/66 22/41/65 30/49/89 29/48/90
s 5
f 22/41/70 23/42/69 31/50/91 30/49/92
s 6
f 23/42/74 24/43/73 32/51/93 31/50/94
s 7
f 24/43/78 25/44/77 33/52/95 32/51/96
s 8
f 25/44/82 18/37/81 26/45/97 33/52/98
s 1
f 9/33/4 10/32/3 35/54/52 34/53/51
s 2
f 10/32/8 11/31/7 36/55/56 35/54/55
s 3
f 11/31/12 12/30/11 37/56/60 36/55/59
s 4
f 12/30/16 13/29/15 38/57/64 37/56/63
s 5
f 13/29/20 14/28/19 39/58/68 38/57/67
s 6
f 14/28/24 15/27/23 40/59/72 39/58/71
s 7
f 15/27/28 16/34/27 41/60/76 40/59/75
s 8
f 16/34/32 9/33/31 34/53/80 41/60/79
s 1
f 1/9/99 2/10/100 43/63/2 42/62/1
s 2
f 2/10/101 3/11/102 44/64/6 43/63/5
s 3
f 3/11/103 4/12/104 45/65/10 44/64/9
s 4
f 4/12/105 5/13/106 46/66/14 45/65/13
s 5
f 5/13/107 6/14/108 47/67/18 46/66/17
s 6
f 6/14/109 7/15/110 48/68/22 47/67/21
s 7
f 7/15/111 8/16/112 49/69/26 48/68/25
s 8
f 8/16/113 1/17/114 42/61/30 49/69/29
s 10
f 26/45/115 27/46/116 51/71/43 50/70/42
f 27/46/116 28/47/117 53/72/45 51/71/43
f 28/47/117 29/48/118 54/73/46 53/72/45
f 29/48/118 30/49/119 55/74/47 54/73/46
f 30/49/119 31/50/120 56/75/48 55/74/47
f 31/50/120 32/51/121 57/76/49 56/75/48
f 32/51/121 33/52/122 58/77/50 57/76/49
f 33/52/122 26/45/115 50/70/42 58/77/50
