# This file uses centimeters as units for non-parametric coordinates.

mtllib pyramid_V2.mtl
g default
v -239.262961 0.000000 239.262961
v 239.262961 0.000000 239.262961
v -5.885662 364.243645 5.885662
v 5.885662 364.243645 5.885662
v -5.885662 364.243645 -5.885662
v 5.885662 364.243645 -5.885662
v -239.262961 0.000000 -239.262961
v 239.262961 0.000000 -239.262961
vt 0.003906 0.003906
vt 0.383971 0.003906
vt 0.198606 0.498402
vt 0.189271 0.498402
vt 0.388832 0.003906
vt 0.768888 0.003906
vt 0.583536 0.498392
vt 0.574184 0.498392
vt 0.796026 0.012969
vt 0.796026 0.003906
vt 0.805057 0.003906
vt 0.805057 0.012969
vt 0.388832 0.501610
vt 0.756600 0.501610
vt 0.756600 0.869378
vt 0.388832 0.869378
vt 0.003906 0.501608
vt 0.383962 0.501608
vt 0.198610 0.996094
vt 0.189259 0.996094
vt 0.777777 0.003906
vt 0.787128 0.003906
vt 0.972475 0.498404
vt 0.592429 0.498404
vn 0.000000 0.539482 0.841997
vn 0.000000 0.539482 0.841997
vn 0.000000 0.539482 0.841997
vn 0.000000 0.539482 0.841997
vn 0.000000 1.000000 0.000000
vn 0.000000 1.000000 0.000000
vn 0.000000 1.000000 0.000000
vn 0.000000 1.000000 0.000000
vn 0.000000 0.539482 -0.841997
vn 0.000000 0.539482 -0.841997
vn 0.000000 0.539482 -0.841997
vn 0.000000 0.539482 -0.841997
vn 0.000000 -1.000000 0.000000
vn 0.000000 -1.000000 0.000000
vn 0.000000 -1.000000 0.000000
vn 0.000000 -1.000000 0.000000
vn 0.841997 0.539482 0.000000
vn 0.841997 0.539482 0.000000
vn 0.841997 0.539482 0.000000
vn 0.841997 0.539482 0.000000
vn -0.841997 0.539482 0.000000
vn -0.841997 0.539482 0.000000
vn -0.841997 0.539482 0.000000
vn -0.841997 0.539482 0.000000
s off
g pCube3
usemtl initialShadingGroup
f 1/17/1 2/18/2 4/19/3 3/20/4
f 3/9/5 4/10/6 6/11/7 5/12/8
f 5/21/9 6/22/10 8/23/11 7/24/12
f 7/13/13 8/14/14 2/15/15 1/16/16
f 2/1/17 8/2/18 6/3/19 4/4/20
f 7/5/21 1/6/22 3/7/23 5/8/24
