# This file uses centimeters as units for non-parametric coordinates.

mtllib Doumbek(instrument).mtl
g default
v 0.109825 0.000000 -0.090300
v 0.000000 0.000000 -0.127704
v -0.109825 0.000000 -0.090300
v -0.155316 0.000000 -0.000000
v -0.109825 0.000000 0.090300
v 0.000000 0.000000 0.127704
v 0.109825 0.000000 0.090300
v 0.155316 0.000000 -0.000000
v 0.097204 0.548103 -0.079923
v 0.000000 0.548103 -0.113029
v -0.097204 0.548103 -0.079923
v -0.137467 0.548103 -0.000000
v -0.097204 0.548103 0.079923
v 0.000000 0.548103 0.113029
v 0.097204 0.548103 0.079923
v 0.137467 0.548103 -0.000000
v 0.000000 0.000000 -0.000000
v 0.148977 0.779914 -0.148516
v 0.000000 0.779914 -0.210033
v -0.148977 0.779914 -0.148516
v -0.210686 0.779914 -0.000000
v -0.148977 0.779914 0.148516
v -0.000000 0.779914 0.210033
v 0.148977 0.779914 0.148516
v 0.210686 0.779914 -0.000000
v 0.148977 0.827429 -0.148516
v -0.000000 0.827429 -0.210033
v -0.148977 0.827429 -0.148516
v -0.210686 0.827429 -0.000000
v -0.148977 0.827429 0.148516
v -0.000000 0.827429 0.210033
v 0.148977 0.827429 0.148516
v 0.210686 0.827429 -0.000000
v 0.135545 0.617065 -0.120087
v -0.000000 0.617065 -0.169828
v -0.135545 0.617065 -0.120087
v -0.191689 0.617065 -0.000000
v -0.135545 0.617065 0.120087
v -0.000000 0.617065 0.169828
v 0.135545 0.617065 0.120087
v 0.191689 0.617065 -0.000000
v 0.099709 0.050497 -0.081983
v 0.000000 0.050497 -0.115942
v -0.099709 0.050497 -0.081983
v -0.141010 0.050496 -0.000000
v -0.099709 0.050497 0.081983
v 0.000000 0.050497 0.115942
v 0.099709 0.050497 0.081983
v 0.141010 0.050497 -0.000000
v 0.128013 0.841682 -0.127720
v -0.000000 0.841682 -0.180274
v -0.000000 0.841682 -0.000000
v -0.128013 0.841682 -0.127720
v -0.181365 0.841682 -0.000000
v -0.128013 0.841682 0.127720
v -0.000000 0.841682 0.180274
v 0.128013 0.841682 0.127720
v 0.181365 0.841682 -0.000000
vt 0.782994 0.761606
vt 0.691605 0.723752
vt 0.600216 0.761606
vt 0.562361 0.852995
vt 0.600216 0.944384
vt 0.691605 0.982239
vt 0.782994 0.944384
vt 0.820848 0.852995
vt 0.010338 0.193379
vt 0.004883 0.947490
vt 0.010338 0.292884
vt 0.004883 0.995117
vt 0.181390 0.292884
vt 0.494730 0.995117
vt 0.038295 0.193379
vt 0.075019 0.947490
vt 0.038295 0.292884
vt 0.075019 0.995117
vt 0.060090 0.193379
vt 0.144879 0.947490
vt 0.060090 0.292882
vt 0.144879 0.995117
vt 0.214738 0.947490
vt 0.214738 0.995117
vt 0.284875 0.947490
vt 0.284875 0.995117
vt 0.355011 0.947490
vt 0.355011 0.995117
vt 0.424871 0.947490
vt 0.424871 0.995117
vt 0.004883 0.618255
vt 0.691605 0.847826
vt 0.818921 0.573108
vt 0.004883 0.696224
vt 0.551476 0.696224
vt 0.093611 0.618255
vt 0.089906 0.696224
vt 0.162787 0.618255
vt 0.162787 0.696224
vt 0.231962 0.618255
vt 0.235667 0.696224
vt 0.903280 0.352066
vt 0.765923 0.408785
vt 0.765923 0.381347
vt 0.883951 0.332892
vt 0.628565 0.352066
vt 0.647895 0.332892
vt 0.571670 0.215134
vt 0.598704 0.215134
vt 0.320691 0.618255
vt 0.320691 0.696224
vt 0.409419 0.618255
vt 0.405714 0.696224
vt 0.478595 0.618255
vt 0.478595 0.696224
vt 0.081886 0.193379
vt 0.081886 0.292884
vt 0.109842 0.193379
vt 0.109842 0.292884
vt 0.137799 0.193379
vt 0.137799 0.292884
vt 0.159595 0.193379
vt 0.159595 0.292884
vt 0.984863 0.579746
vt 0.936260 0.462407
vt 0.818921 0.413804
vt 0.936260 0.697085
vt 0.818921 0.745688
vt 0.701582 0.697085
vt 0.652979 0.579746
vt 0.701582 0.462407
vt 0.933142 0.215134
vt 0.960176 0.215134
vt 0.883951 0.097375
vt 0.903280 0.078202
vt 0.765923 0.048921
vt 0.765923 0.021483
vt 0.628565 0.078202
vt 0.647895 0.097375
vt 0.000550 0.306045
vt 0.000550 0.594572
vt 0.081613 0.306045
vt 0.081613 0.594572
vt 0.144813 0.306044
vt 0.144813 0.594572
vt 0.208013 0.306045
vt 0.208013 0.594572
vt 0.289077 0.306045
vt 0.289077 0.594572
vt 0.370141 0.306045
vt 0.370141 0.594572
vt 0.433341 0.306045
vt 0.433341 0.594572
vt 0.496541 0.306045
vt 0.577605 0.306045
vt 0.577605 0.594572
vt 0.496541 0.594572
vt 0.383430 0.925979
vt 0.436446 0.925979
vt 0.436446 0.714336
vt 0.379466 0.714337
vt 0.013160 0.714336
vt 0.013160 0.925979
vt 0.070139 0.714336
vt 0.066175 0.925979
vt 0.118981 0.714337
vt 0.118981 0.925979
vt 0.167823 0.714337
vt 0.171787 0.925979
vt 0.224803 0.714337
vt 0.224803 0.925979
vt 0.281782 0.714337
vt 0.277818 0.925979
vt 0.330624 0.714337
vt 0.330624 0.925979
vt 0.494730 0.947490
vt 0.564867 0.947490
vt 0.564867 0.995117
vt 0.547771 0.618255
vt 0.636499 0.618255
vt 0.636499 0.696224
vt 0.181390 0.193379
vt 0.209347 0.193379
vt 0.209347 0.292884
vn 0.322259 0.028590 -0.946220
vn 0.322259 0.028590 -0.946220
vn 0.322196 -0.120195 -0.939012
vn 0.322322 -0.114211 -0.939715
vn -0.322259 0.028590 -0.946220
vn -0.322259 0.028590 -0.946220
vn -0.322322 -0.114211 -0.939715
vn -0.322196 -0.120195 -0.939012
vn -0.892595 0.032801 -0.449665
vn -0.892595 0.032801 -0.449665
vn -0.888221 -0.117362 -0.444174
vn -0.887637 -0.123335 -0.443721
vn -0.892595 0.032801 0.449665
vn -0.892595 0.032801 0.449665
vn -0.887637 -0.123335 0.443722
vn -0.888220 -0.117362 0.444174
vn -0.322259 0.028590 0.946220
vn -0.322259 0.028590 0.946220
vn -0.322196 -0.120195 0.939012
vn -0.322322 -0.114211 0.939715
vn 0.322259 0.028590 0.946220
vn 0.322259 0.028590 0.946220
vn 0.322322 -0.114211 0.939715
vn 0.322196 -0.120195 0.939012
vn 0.892595 0.032801 0.449665
vn 0.892595 0.032801 0.449665
vn 0.888220 -0.117362 0.444174
vn 0.887637 -0.123335 0.443722
vn 0.892595 0.032801 -0.449665
vn 0.892595 0.032801 -0.449665
vn 0.887637 -0.123335 -0.443722
vn 0.888220 -0.117362 -0.444174
vn 0.000000 -1.000000 0.000000
vn 0.000000 -1.000000 -0.000000
vn 0.000000 -1.000000 0.000000
vn 0.000000 -1.000000 -0.000000
vn 0.000000 -1.000000 0.000000
vn 0.000000 -1.000000 0.000000
vn 0.000000 -1.000000 0.000000
vn 0.000000 -1.000000 0.000000
vn 0.000000 -1.000000 0.000000
vn 0.127397 0.984584 -0.119849
vn -0.000000 0.982525 -0.186132
vn -0.000000 1.000000 -0.000000
vn -0.127397 0.984584 -0.119849
vn -0.166313 0.986073 -0.000000
vn -0.127397 0.984584 0.119848
vn 0.000000 0.982525 0.186131
vn 0.127397 0.984584 0.119848
vn 0.166313 0.986073 -0.000000
vn 0.338806 -0.319480 -0.884953
vn 0.342176 -0.300237 -0.890378
vn 0.364387 -0.153977 -0.918429
vn 0.363480 -0.160290 -0.917709
vn -0.342176 -0.300237 -0.890378
vn -0.338806 -0.319480 -0.884953
vn -0.363480 -0.160290 -0.917709
vn -0.364387 -0.153977 -0.918430
vn -0.891167 -0.219213 -0.397198
vn -0.886268 -0.239574 -0.396400
vn -0.913615 -0.094235 -0.395509
vn -0.914193 -0.090317 -0.395088
vn -0.886268 -0.239574 0.396400
vn -0.891167 -0.219213 0.397199
vn -0.914193 -0.090317 0.395088
vn -0.913615 -0.094235 0.395509
vn -0.338806 -0.319480 0.884954
vn -0.342176 -0.300237 0.890378
vn -0.364387 -0.153977 0.918430
vn -0.363480 -0.160290 0.917709
vn 0.342176 -0.300237 0.890378
vn 0.338806 -0.319480 0.884953
vn 0.363480 -0.160290 0.917709
vn 0.364387 -0.153977 0.918430
vn 0.891167 -0.219213 0.397198
vn 0.886268 -0.239574 0.396400
vn 0.913615 -0.094235 0.395509
vn 0.914193 -0.090317 0.395088
vn 0.886268 -0.239574 -0.396400
vn 0.891167 -0.219214 -0.397199
vn 0.914193 -0.090317 -0.395088
vn 0.913615 -0.094235 -0.395509
vn 0.381671 -0.000001 -0.924298
vn 0.381671 -0.000001 -0.924298
vn -0.381671 -0.000000 -0.924298
vn -0.381671 -0.000000 -0.924298
vn -0.923458 0.000000 -0.383698
vn -0.923458 0.000000 -0.383698
vn -0.923459 0.000000 0.383698
vn -0.923459 0.000000 0.383698
vn -0.381671 0.000000 0.924298
vn -0.381671 0.000000 0.924298
vn 0.381671 0.000000 0.924298
vn 0.381671 0.000000 0.924298
vn 0.923459 -0.000000 0.383698
vn 0.923459 -0.000000 0.383698
vn 0.923459 -0.000000 -0.383698
vn 0.923459 -0.000000 -0.383698
vn 0.314828 0.215326 -0.924401
vn 0.314828 0.215326 -0.924401
vn -0.314828 0.215326 -0.924401
vn -0.314828 0.215326 -0.924401
vn -0.865794 0.245283 -0.436162
vn -0.865794 0.245283 -0.436162
vn -0.865794 0.245283 0.436162
vn -0.865794 0.245283 0.436162
vn -0.314828 0.215326 0.924401
vn -0.314828 0.215326 0.924401
vn 0.314828 0.215326 0.924401
vn 0.314828 0.215326 0.924401
vn 0.865794 0.245280 0.436164
vn 0.865794 0.245280 0.436164
vn 0.865794 0.245280 -0.436164
vn 0.865794 0.245280 -0.436164
vn 0.289831 0.900423 -0.324402
vn 0.000000 0.900951 -0.433921
vn -0.289831 0.900423 -0.324401
vn -0.435360 0.900257 0.000000
vn -0.289831 0.900423 0.324401
vn 0.000000 0.900952 0.433919
vn 0.289830 0.900424 0.324400
vn 0.435358 0.900257 -0.000001
s 1
g pCylinder1
usemtl lambert3SG
f 42/94/1 43/95/2 10/96/3 9/97/4
s 2
f 43/80/5 44/82/6 11/83/7 10/81/8
s 3
f 44/82/9 45/84/10 12/85/11 11/83/12
s 4
f 45/84/13 46/86/14 13/87/15 12/85/16
s 5
f 46/86/17 47/88/18 14/89/19 13/87/20
s 6
f 47/88/21 48/90/22 15/91/23 14/89/24
s 7
f 48/90/25 49/92/26 16/93/27 15/91/28
s 8
f 49/92/29 42/94/30 9/97/31 16/93/32
s 9
f 2/2/33 1/1/34 17/32/35
f 3/3/36 2/2/33 17/32/35
f 4/4/37 3/3/36 17/32/35
f 5/5/38 4/4/37 17/32/35
f 6/6/39 5/5/38 17/32/35
f 7/7/40 6/6/39 17/32/35
f 8/8/41 7/7/40 17/32/35
f 1/1/34 8/8/41 17/32/35
s 10
f 50/67/42 51/68/43 52/33/44
f 51/68/43 53/69/45 52/33/44
f 53/69/45 54/70/46 52/33/44
f 54/70/46 55/71/47 52/33/44
f 55/71/47 56/66/48 52/33/44
f 56/66/48 57/65/49 52/33/44
f 57/65/49 58/64/50 52/33/44
f 58/64/50 50/67/42 52/33/44
s 1
f 34/101/51 35/100/52 19/99/53 18/98/54
s 2
f 35/102/55 36/104/56 20/105/57 19/103/58
s 3
f 36/104/59 37/106/60 21/107/61 20/105/62
s 4
f 37/106/63 38/108/64 22/109/65 21/107/66
s 5
f 38/108/67 39/110/68 23/111/69 22/109/70
s 6
f 39/110/71 40/112/72 24/113/73 23/111/74
s 7
f 40/112/75 41/114/76 25/115/77 24/113/78
s 8
f 41/114/79 34/101/80 18/98/81 25/115/82
s 1
f 18/116/54 19/117/53 27/118/83 26/14/84
s 2
f 19/10/58 20/16/57 28/18/85 27/12/86
s 3
f 20/16/62 21/20/61 29/22/87 28/18/88
s 4
f 21/20/66 22/23/65 30/24/89 29/22/90
s 5
f 22/23/70 23/25/69 31/26/91 30/24/92
s 6
f 23/25/74 24/27/73 32/28/93 31/26/94
s 7
f 24/27/78 25/29/77 33/30/95 32/28/96
s 8
f 25/29/82 18/116/81 26/14/97 33/30/98
s 1
f 9/119/4 10/120/3 35/121/52 34/35/51
s 2
f 10/31/8 11/36/7 36/37/56 35/34/55
s 3
f 11/36/12 12/38/11 37/39/60 36/37/59
s 4
f 12/38/16 13/40/15 38/41/64 37/39/63
s 5
f 13/40/20 14/50/19 39/51/68 38/41/67
s 6
f 14/50/24 15/52/23 40/53/72 39/51/71
s 7
f 15/52/28 16/54/27 41/55/76 40/53/75
s 8
f 16/54/32 9/119/31 34/35/80 41/55/79
s 1
f 1/122/99 2/123/100 43/124/2 42/13/1
s 2
f 2/9/101 3/15/102 44/17/6 43/11/5
s 3
f 3/15/103 4/19/104 45/21/10 44/17/9
s 4
f 4/19/105 5/56/106 46/57/14 45/21/13
s 5
f 5/56/107 6/58/108 47/59/18 46/57/17
s 6
f 6/58/109 7/60/110 48/61/22 47/59/21
s 7
f 7/60/111 8/62/112 49/63/26 48/61/25
s 8
f 8/62/113 1/122/114 42/13/30 49/63/29
s 10
f 26/42/115 27/43/116 51/44/43 50/45/42
f 27/43/116 28/46/117 53/47/45 51/44/43
f 28/46/117 29/48/118 54/49/46 53/47/45
f 29/48/118 30/78/119 55/79/47 54/49/46
f 30/78/119 31/77/120 56/76/48 55/79/47
f 31/77/120 32/75/121 57/74/49 56/76/48
f 32/75/121 33/73/122 58/72/50 57/74/49
f 33/73/122 26/42/115 50/45/42 58/72/50
