# This file uses centimeters as units for non-parametric coordinates.

mtllib ground_V1.mtl
g default
v -786.920249 0.000000 786.920249
v 786.920249 0.000000 786.920249
v -786.920249 1.073078 786.920249
v 786.920249 1.073078 786.920249
v -786.920249 1.073078 -786.920249
v 786.920249 1.073078 -786.920249
v -786.920249 0.000000 -786.920249
v 786.920249 0.000000 -786.920249
vt 0.337265 0.667768
vt 0.665591 0.667768
vt 0.665591 0.996094
vt 0.337265 0.996094
vt 0.003906 0.335806
vt 0.332232 0.335806
vt 0.332232 0.664132
vt 0.003906 0.664132
vt 0.003906 0.003906
vt 0.332232 0.003906
vt 0.332232 0.332232
vt 0.003906 0.332232
vt 0.003906 0.667706
vt 0.332232 0.667706
vt 0.332232 0.996032
vt 0.003906 0.996032
vt 0.337265 0.003906
vt 0.665591 0.003906
vt 0.665591 0.332232
vt 0.337265 0.332232
vt 0.337265 0.335806
vt 0.665529 0.335806
vt 0.665529 0.664194
vt 0.337265 0.664194
vn 0.000000 0.000000 1.000000
vn 0.000000 0.000000 1.000000
vn 0.000000 0.000000 1.000000
vn 0.000000 0.000000 1.000000
vn 0.000000 1.000000 0.000000
vn 0.000000 1.000000 0.000000
vn 0.000000 1.000000 0.000000
vn 0.000000 1.000000 0.000000
vn 0.000000 0.000000 -1.000000
vn 0.000000 0.000000 -1.000000
vn 0.000000 0.000000 -1.000000
vn 0.000000 0.000000 -1.000000
vn 0.000000 -1.000000 0.000000
vn 0.000000 -1.000000 0.000000
vn 0.000000 -1.000000 0.000000
vn 0.000000 -1.000000 0.000000
vn 1.000000 0.000000 0.000000
vn 1.000000 0.000000 0.000000
vn 1.000000 0.000000 0.000000
vn 1.000000 0.000000 0.000000
vn -1.000000 0.000000 0.000000
vn -1.000000 0.000000 0.000000
vn -1.000000 0.000000 0.000000
vn -1.000000 0.000000 0.000000
s off
g pCube2
usemtl initialShadingGroup
f 1/17/1 2/18/2 4/19/3 3/20/4
f 3/9/5 4/10/6 6/11/7 5/12/8
f 5/21/9 6/22/10 8/23/11 7/24/12
f 7/13/13 8/14/14 2/15/15 1/16/16
f 2/1/17 8/2/18 6/3/19 4/4/20
f 7/5/21 1/6/22 3/7/23 5/8/24
