# This file uses centimeters as units for non-parametric coordinates.

mtllib katana.mtl
g default
v 82.977718 221.444846 5.988691
v 83.754495 221.444846 5.988691
v 82.977718 232.058698 5.988691
v 83.754495 232.058698 5.988691
v 82.977718 232.058698 -10.080249
v 83.754495 232.058698 -10.080249
v 82.977718 221.444846 -10.080249
v 83.754495 221.444846 -10.080249
v 83.754495 224.296813 -7.228459
v 83.754495 224.296813 3.136901
v 83.754495 229.207028 -7.228459
v 83.754495 229.207028 3.136901
v 169.798619 224.296813 -7.228459
v 169.798619 224.296813 3.136901
v 169.798619 229.207028 -7.228459
v 169.798619 229.207028 3.136901
v -118.434120 226.794995 16.753179
v 84.075376 226.794995 1.057453
v -118.434120 228.133813 16.753179
v 84.075376 228.133813 1.057453
v -113.792018 228.133813 11.813997
v 83.576861 228.133813 -5.374611
v -113.792018 226.794995 11.813997
v 83.576861 226.794995 -5.374611
v -67.449951 226.794995 6.740653
v -65.256937 226.794995 1.090234
v -65.256937 228.133813 1.090234
v -67.449951 228.133813 6.740653
v -42.092423 226.794995 3.369041
v -42.092423 228.133813 3.369041
v -40.066616 228.133813 -2.329936
v -40.066616 226.794995 -2.329936
v -20.723776 226.794995 2.005792
v -20.723776 228.133813 2.005792
v -18.868680 228.133813 -3.742760
v -18.868680 226.794995 -3.742760
v 3.218968 226.794995 1.785532
v 3.218968 228.133813 1.785532
v 4.468341 228.133813 -4.138923
v 4.468341 226.794995 -4.138923
vt 0.074359 0.475311
vt 0.078179 0.475311
vt 0.078179 0.527514
vt 0.074359 0.527514
vt 0.074359 0.461896
vt 0.078179 0.461896
vt 0.078179 0.540929
vt 0.074359 0.540929
vt 0.074359 0.475311
vt 0.078179 0.475311
vt 0.078179 0.527514
vt 0.074359 0.527514
vt 0.074359 0.461896
vt 0.078179 0.461896
vt 0.078179 0.540929
vt 0.074359 0.540929
vt 0.302875 0.388847
vt 0.302875 0.337866
vt 0.327025 0.337866
vt 0.327025 0.388847
vt 0.050168 0.540929
vt 0.050168 0.461896
vt 0.102371 0.461896
vt 0.102371 0.540929
vt 0.050168 0.540929
vt 0.050168 0.461896
vt 0.064195 0.475923
vt 0.064195 0.526903
vt 0.102371 0.461896
vt 0.088345 0.475923
vt 0.102371 0.540929
vt 0.088345 0.526903
vt 0.340441 0.574955
vt 0.289460 0.574955
vt 0.289460 0.151758
vt 0.340441 0.151758
vt 0.327025 0.574955
vt 0.302875 0.574955
vt 0.302875 0.151758
vt 0.327025 0.151758
vt 0.340441 0.574955
vt 0.289460 0.574955
vt 0.289460 0.151758
vt 0.340441 0.151758
vt 0.327025 0.574954
vt 0.302875 0.574954
vt 0.302875 0.151758
vt 0.327025 0.151758
vt 0.079562 0.748662
vt 0.072977 0.748662
vt 0.072977 0.623944
vt 0.079562 0.623944
vt 0.098889 0.737876
vt 0.071098 0.748662
vt 0.087681 0.623944
vt 0.115710 0.613981
vt 0.079561 0.736650
vt 0.072977 0.736650
vt 0.072977 0.612755
vt 0.079561 0.612755
vt 0.081440 0.748662
vt 0.053649 0.737876
vt 0.036828 0.613981
vt 0.064857 0.623944
vt 0.079561 0.975363
vt 0.079561 0.998195
vt 0.072977 0.998195
vt 0.072977 0.975363
vt 0.106393 0.976589
vt 0.130685 0.999421
vt 0.021853 0.999421
vt 0.046145 0.976589
vt 0.072977 0.999421
vt 0.079562 0.999421
vt 0.072977 0.518846
vt 0.079562 0.518846
vt 0.094386 0.518845
vt 0.122659 0.509721
vt 0.072977 0.508496
vt 0.079561 0.508496
vt 0.029879 0.509722
vt 0.058152 0.518846
vt 0.072977 0.401086
vt 0.079562 0.401086
vt 0.095469 0.401087
vt 0.124608 0.394942
vt 0.072977 0.393716
vt 0.079561 0.393716
vt 0.027930 0.394942
vt 0.057069 0.401086
vt 0.072977 0.003405
vt 0.079562 0.003405
vt 0.099050 0.003405
vt 0.130685 0.005857
vt 0.072977 0.004631
vt 0.079561 0.004631
vt 0.021853 0.005857
vt 0.053488 0.003405
vn 0.000000 0.000000 1.000000
vn 0.000000 0.000000 1.000000
vn 0.000000 0.000000 1.000000
vn 0.000000 0.000000 1.000000
vn 0.000000 1.000000 0.000000
vn 0.000000 1.000000 0.000000
vn 0.000000 1.000000 0.000000
vn 0.000000 1.000000 0.000000
vn 0.000000 0.000000 -1.000000
vn 0.000000 0.000000 -1.000000
vn 0.000000 0.000000 -1.000000
vn 0.000000 0.000000 -1.000000
vn 0.000000 -1.000000 0.000000
vn 0.000000 -1.000000 0.000000
vn 0.000000 -1.000000 0.000000
vn 0.000000 -1.000000 0.000000
vn 1.000000 0.000000 0.000000
vn 1.000000 0.000000 0.000000
vn 1.000000 0.000000 0.000000
vn 1.000000 0.000000 0.000000
vn -1.000000 0.000000 0.000000
vn -1.000000 0.000000 0.000000
vn -1.000000 0.000000 0.000000
vn -1.000000 0.000000 0.000000
vn 1.000000 0.000001 0.000000
vn 1.000000 0.000001 0.000000
vn 1.000000 0.000001 0.000000
vn 1.000000 0.000001 0.000000
vn 1.000000 0.000001 0.000000
vn 1.000000 -0.000001 0.000000
vn 1.000000 -0.000001 0.000000
vn 1.000000 0.000001 0.000000
vn 1.000000 -0.000001 0.000000
vn 1.000000 -0.000001 0.000000
vn 1.000000 -0.000001 0.000000
vn 1.000000 -0.000001 0.000000
vn 1.000000 -0.000001 0.000000
vn 1.000000 0.000001 0.000000
vn 1.000000 0.000001 0.000000
vn 1.000000 -0.000001 0.000000
vn 0.000000 -1.000000 0.000000
vn 0.000000 -1.000000 0.000000
vn 0.000000 -1.000000 0.000000
vn 0.000000 -1.000000 0.000000
vn 0.000000 0.000000 -1.000000
vn 0.000000 0.000000 -1.000000
vn 0.000000 0.000000 -1.000000
vn 0.000000 0.000000 -1.000000
vn 0.000000 1.000000 0.000000
vn 0.000000 1.000000 0.000000
vn 0.000000 1.000000 0.000000
vn 0.000000 1.000000 0.000000
vn 0.000000 0.000000 1.000000
vn 0.000000 0.000000 1.000000
vn 0.000000 0.000000 1.000000
vn 0.000000 0.000000 1.000000
vn 0.172686 0.000000 0.984977
vn 0.172686 0.000000 0.984977
vn 0.100817 0.000000 0.994905
vn 0.100817 0.000000 0.994905
vn 0.000000 1.000000 -0.000001
vn 0.000000 1.000000 -0.000001
vn 0.000000 1.000000 0.000004
vn 0.000000 1.000000 0.000007
vn -0.188410 0.000000 -0.982090
vn -0.188410 0.000000 -0.982090
vn -0.103624 0.000000 -0.994617
vn -0.103624 0.000000 -0.994617
vn 0.000000 -1.000000 0.000001
vn 0.000000 -1.000000 0.000005
vn 0.000000 -1.000000 0.000004
vn 0.000000 -1.000000 0.000007
vn -0.728669 0.000000 -0.684866
vn -0.728669 0.000000 -0.684866
vn -0.728669 0.000000 -0.684866
vn -0.728669 0.000000 -0.684866
vn 0.000000 -1.000000 -0.000002
vn 0.000000 -1.000000 0.000005
vn 0.000000 -1.000000 0.000001
vn 0.000000 -1.000000 -0.000002
vn -0.215745 0.000000 -0.976450
vn -0.188410 0.000000 -0.982090
vn -0.188410 0.000000 -0.982090
vn -0.215745 0.000000 -0.976450
vn 0.000000 1.000000 -0.000002
vn 0.000000 1.000000 -0.000001
vn 0.000000 1.000000 -0.000001
vn 0.000000 1.000000 -0.000002
vn 0.192704 0.000000 0.981257
vn 0.172686 0.000000 0.984977
vn 0.172686 0.000000 0.984977
vn 0.192704 0.000000 0.981257
vn 0.100817 0.000000 0.994905
vn 0.100817 0.000000 0.994905
vn 0.034927 0.000000 0.999390
vn 0.034927 0.000000 0.999390
vn 0.000000 1.000000 0.000007
vn 0.000000 1.000000 0.000004
vn 0.000000 1.000000 0.000007
vn 0.000000 1.000000 0.000004
vn -0.103624 0.000000 -0.994617
vn -0.103624 0.000000 -0.994617
vn -0.040585 0.000000 -0.999176
vn -0.040585 0.000000 -0.999176
vn 0.000000 -1.000000 0.000007
vn 0.000000 -1.000000 0.000004
vn 0.000000 -1.000000 0.000006
vn 0.000000 -1.000000 0.000004
vn 0.034927 0.000000 0.999390
vn 0.034927 0.000000 0.999390
vn 0.009049 0.000000 0.999959
vn 0.009049 0.000000 0.999959
vn 0.000000 1.000000 0.000004
vn 0.000000 1.000000 0.000007
vn 0.000000 1.000000 0.000008
vn 0.000000 1.000000 0.000009
vn -0.040585 0.000000 -0.999176
vn -0.040585 0.000000 -0.999176
vn -0.015927 0.000000 -0.999873
vn -0.015927 0.000000 -0.999873
vn 0.000000 -1.000000 0.000004
vn 0.000000 -1.000000 0.000006
vn 0.000000 -1.000000 0.000002
vn 0.000000 -1.000000 0.000003
vn 0.009049 0.000000 0.999959
vn 0.009049 0.000000 0.999959
vn 0.009004 0.000000 0.999959
vn 0.009004 0.000000 0.999959
vn 0.000000 1.000000 0.000009
vn 0.000000 1.000000 0.000008
vn 0.000000 1.000000 0.000011
vn 0.000000 1.000000 0.000011
vn -0.015927 0.000000 -0.999873
vn -0.015927 0.000000 -0.999873
vn -0.015618 0.000000 -0.999878
vn -0.015618 0.000000 -0.999878
vn 0.000000 -1.000000 0.000003
vn 0.000000 -1.000000 0.000002
vn 0.000000 -1.000000 0.000000
vn 0.000000 -1.000000 0.000000
s off
g katana:pCube45
usemtl initialShadingGroup
f 1/1/1 2/2/2 4/3/3 3/4/4
f 3/5/5 4/6/6 6/7/7 5/8/8
f 5/9/9 6/10/10 8/11/11 7/12/12
f 7/13/13 8/14/14 2/15/15 1/16/16
f 14/17/17 13/18/18 15/19/19 16/20/20
f 7/21/21 1/22/22 3/23/23 5/24/24
f 2/25/25 8/26/26 9/27/27 10/28/28
f 8/26/29 6/29/30 11/30/31 9/27/32
f 6/29/33 4/31/34 12/32/35 11/30/36
f 4/31/37 2/25/38 10/28/39 12/32/40
f 10/33/41 9/34/42 13/35/43 14/36/44
f 9/37/45 11/38/46 15/39/47 13/40/48
f 11/41/49 12/42/50 16/43/51 15/44/52
f 12/45/53 10/46/54 14/47/55 16/48/56
f 28/49/57 25/50/58 29/51/59 30/52/60
f 27/53/61 28/54/62 30/55/63 31/56/64
f 26/57/65 27/58/66 31/59/67 32/60/68
f 25/61/69 26/62/70 32/63/71 29/64/72
f 23/65/73 17/66/74 19/67/75 21/68/76
f 23/69/77 26/62/78 25/61/79 17/70/80
f 21/68/81 27/58/82 26/57/83 23/65/84
f 19/71/85 28/54/86 27/53/87 21/72/88
f 17/73/89 25/50/90 28/49/91 19/74/92
f 30/52/93 29/51/94 33/75/95 34/76/96
f 31/56/97 30/55/98 34/77/99 35/78/100
f 32/60/101 31/59/102 35/79/103 36/80/104
f 29/64/105 32/63/106 36/81/107 33/82/108
f 34/76/109 33/75/110 37/83/111 38/84/112
f 35/78/113 34/77/114 38/85/115 39/86/116
f 36/80/117 35/79/118 39/87/119 40/88/120
f 33/82/121 36/81/122 40/89/123 37/90/124
f 38/84/125 37/83/126 18/91/127 20/92/128
f 39/86/129 38/85/130 20/93/131 22/94/132
f 40/88/133 39/87/134 22/95/135 24/96/136
f 37/90/137 40/89/138 24/97/139 18/98/140
