# This file uses centimeters as units for non-parametric coordinates.

mtllib peddle.mtl
g default
v -139.238875 168.833668 -95.397304
v -137.676872 169.976336 -93.922708
v -139.984053 168.634568 -93.922708
v -141.261452 167.567952 -93.922708
v -139.743715 168.250496 -93.922708
v -137.528308 169.738954 -93.922708
v -137.216314 170.099374 -91.536747
v -138.734043 169.416816 -91.536747
v -140.949459 167.928372 -91.536747
v -140.800886 167.690995 -91.536747
v -138.493697 169.032730 -91.536747
v -139.238875 168.833668 -90.062150
vt 0.094214 0.561049
vt 0.251485 0.464436
vt 0.459047 0.783045
vt 0.136572 0.232699
vt 0.273107 0.408091
vt 0.472412 0.748222
vt 0.726886 0.591899
vt 0.527584 0.251768
vt 0.540949 0.216945
vt 0.748508 0.535556
vt 0.863424 0.767291
vt 0.905783 0.438945
vn -0.498053 0.856406 -0.136056
vn -0.498053 0.856406 -0.136056
vn -0.498053 0.856406 -0.136056
vn -0.625932 0.749628 -0.215096
vn -0.625932 0.749628 -0.215096
vn -0.625932 0.749628 -0.215096
vn 0.400544 -0.890669 -0.215111
vn 0.400544 -0.890669 -0.215111
vn 0.400544 -0.890669 -0.215111
vn 0.552498 -0.822333 -0.136063
vn 0.552498 -0.822333 -0.136063
vn 0.552498 -0.822333 -0.136063
vn 0.514592 0.322054 -0.794655
vn 0.514592 0.322054 -0.794655
vn 0.514592 0.322054 -0.794655
vn -0.502627 0.864271 -0.020028
vn -0.502627 0.864271 -0.020028
vn -0.502627 0.864271 -0.020028
vn -0.640604 0.767199 -0.032125
vn -0.640604 0.767199 -0.032125
vn -0.640604 0.767199 -0.032125
vn 0.409934 -0.911549 -0.032122
vn 0.409934 -0.911549 -0.032122
vn 0.409934 -0.911549 -0.032122
vn 0.557573 -0.829886 -0.020038
vn 0.557573 -0.829886 -0.020038
vn 0.557573 -0.829886 -0.020038
vn 0.832627 0.521096 -0.187592
vn 0.832627 0.521096 -0.187592
vn 0.832627 0.521096 -0.187592
vn -0.409943 0.911545 0.032125
vn -0.409943 0.911545 0.032125
vn -0.409943 0.911545 0.032125
vn -0.557568 0.829890 0.020028
vn -0.557568 0.829890 0.020028
vn -0.557568 0.829890 0.020028
vn -0.832609 -0.521125 0.187594
vn -0.832609 -0.521125 0.187594
vn -0.832609 -0.521125 0.187594
vn 0.502616 -0.864277 0.020029
vn 0.502616 -0.864277 0.020029
vn 0.502616 -0.864277 0.020029
vn 0.640619 -0.767187 0.032121
vn 0.640619 -0.767187 0.032121
vn 0.640619 -0.767187 0.032121
vn -0.400554 0.890668 0.215095
vn -0.400554 0.890668 0.215095
vn -0.400554 0.890668 0.215095
vn -0.552494 0.822338 0.136056
vn -0.552494 0.822338 0.136056
vn -0.552494 0.822338 0.136056
vn -0.514578 -0.322072 0.794657
vn -0.514578 -0.322072 0.794657
vn -0.514578 -0.322072 0.794657
vn 0.498042 -0.856411 0.136072
vn 0.498042 -0.856411 0.136072
vn 0.498042 -0.856411 0.136072
vn 0.625943 -0.749612 0.215123
vn 0.625943 -0.749612 0.215123
vn 0.625943 -0.749612 0.215123
s off
g pPlatonic67
usemtl initialShadingGroup
f 1/1/1 3/2/2 2/3/3
f 1/1/4 4/4/5 3/2/6
f 1/1/7 5/5/8 4/4/9
f 1/1/10 6/6/11 5/5/12
f 1/1/13 2/3/14 6/6/15
f 2/3/16 3/2/17 8/7/18
f 3/2/19 4/4/20 9/8/21
f 4/4/22 5/5/23 10/9/24
f 5/5/25 6/6/26 11/10/27
f 6/6/28 2/3/29 7/11/30
f 2/3/31 8/7/32 7/11/33
f 3/2/34 9/8/35 8/7/36
f 4/4/37 10/9/38 9/8/39
f 5/5/40 11/10/41 10/9/42
f 6/6/43 7/11/44 11/10/45
f 7/11/46 8/7/47 12/12/48
f 8/7/49 9/8/50 12/12/51
f 9/8/52 10/9/53 12/12/54
f 10/9/55 11/10/56 12/12/57
f 11/10/58 7/11/59 12/12/60
